<svg width="24" height="24" viewBox="0 0 24 24"><defs><linearGradient id="a" x1="13.368%" x2="87.636%" y1="16.036%" y2="81.312%"><stop offset="0%" stop-color="#6BAA12"></stop><stop offset="100%" stop-color="#009E9B"></stop></linearGradient></defs><g fill="none" fill-rule="evenodd"><path fill="url(#a)" d="M11 0C4.923 0 0 4.923 0 11s4.923 11 11 11 11-4.923 11-11S17.077 0 11 0z" transform="translate(1 1)"></path><path fill="#FFF" d="M16.364 7.61l-6.284 6.22-2.044-2.02a.38.38 0 0 0-.535 0l-.89.883a.373.373 0 0 0 0 .53l3.202 3.17a.38.38 0 0 0 .534 0l7.442-7.369a.373.373 0 0 0 0-.53l-.89-.884a.38.38 0 0 0-.535 0z"></path></g></svg>