<svg xmlns="http://www.w3.org/2000/svg" width="24" height="24" viewBox="0 0 24 24">
    <g fill="none" fill-rule="evenodd">
        <path fill="#C7C7C7" d="M11 0C4.923 0 0 4.923 0 11s4.923 11 11 11 11-4.923 11-11S17.077 0 11 0z" transform="translate(1 1)"/>
        <path fill="#FFF" d="M15.364 6.61L9.08 12.83l-2.044-2.02c-.148-.147-.387-.147-.535 0l-.89.883c-.148.147-.148.384 0 .53l3.202 3.17c.147.147.386.147.534 0l7.442-7.369c.148-.146.148-.384 0-.53l-.89-.884c-.148-.147-.387-.147-.535 0z" transform="translate(1 1)"/>
    </g>
</svg>
