<svg width="24" height="24" viewBox="0 0 24 24" style="margin-left: 15px;"><path fill-rule="evenodd" d="M19.86 18.625l-3.787-3.787c-.071-.072-.165-.109-.265-.109h-.412c.983-1.138 1.579-2.62 1.579-4.242C16.975 6.904 14.07 4 10.487 4 6.904 4 4 6.904 4 10.487c0 3.584 2.904 6.488 6.487 6.488 1.622 0 3.104-.596 4.242-1.579v.412c0 .1.04.194.11.265l3.786 3.787c.146.146.383.146.53 0l.705-.705c.146-.147.146-.384 0-.53zm-9.373-3.147c-2.757 0-4.99-2.234-4.99-4.99 0-2.758 2.233-4.99 4.99-4.99s4.99 2.232 4.99 4.99c0 2.756-2.233 4.99-4.99 4.99z"></path></svg>